<svg width="1200" height="420" viewBox="0 0 1200 420" xmlns="http://www.w3.org/2000/svg">
  <style>
    /* CSS entrance (not SMIL) — Chromium never starts SMIL clocks for
       below-viewport images; fill-mode:both degrades to fully-visible. */
    .card-in { animation: fadeUp 0.9s cubic-bezier(0.25, 1, 0.5, 1) 0.1s both; }
    @keyframes fadeUp { from { opacity: 0; transform: translateY(14px); } to { opacity: 1; transform: none; } }
    @media (prefers-reduced-motion: reduce) { .card-in { animation: none; } }
  </style>
  <defs>
    <linearGradient id="accent" x1="0%" y1="0%" x2="100%" y2="0%">
      <stop offset="0%" stop-color="#00d9ff"/>
      <stop offset="100%" stop-color="#8b5cf6"/>
      <animate attributeName="x1" dur="14s" values="0%;22%;0%" repeatCount="indefinite"/>
      <animate attributeName="x2" dur="14s" values="100%;78%;100%" repeatCount="indefinite"/>
    </linearGradient>
    <linearGradient id="sky" x1="0%" y1="0%" x2="0%" y2="100%">
      <stop offset="0%" stop-color="#0a0f1f"/>
      <stop offset="55%" stop-color="#0d1220"/>
      <stop offset="100%" stop-color="#0d1117"/>
    </linearGradient>
    <linearGradient id="mist" x1="0%" y1="0%" x2="0%" y2="100%">
      <stop offset="0%" stop-color="#8b949e" stop-opacity="0"/>
      <stop offset="100%" stop-color="#8b949e" stop-opacity="0.10"/>
    </linearGradient>
    <filter id="soft" filterUnits="userSpaceOnUse" x="10" y="0" width="1180" height="320">
      <feGaussianBlur stdDeviation="14"/>
    </filter>
    <filter id="shadow" x="-15%" y="-15%" width="130%" height="130%">
      <feDropShadow dx="0" dy="10" stdDeviation="18" flood-color="#000000" flood-opacity="0.35"/>
    </filter>
    <clipPath id="frame"><rect x="150" y="20" width="900" height="380" rx="16"/></clipPath>
  </defs>

  <g class="card-in">

    <rect x="150" y="20" width="900" height="380" rx="16" fill="url(#sky)" filter="url(#shadow)"/>

    <g clip-path="url(#frame)">
      <!-- stars -->
    <circle cx="328.0" cy="156.4" r="0.86" fill="#e6edf3" opacity="0.70">
      <animate attributeName="opacity" values="0.70;0.17;0.70" dur="5.0s" begin="3.2s" repeatCount="indefinite"/>
    </circle>
    <circle cx="492.0" cy="151.6" r="1.15" fill="#e6edf3" opacity="0.51">
      <animate attributeName="opacity" values="0.51;0.13;0.51" dur="3.9s" begin="2.0s" repeatCount="indefinite"/>
    </circle>
    <circle cx="834.4" cy="160.7" r="1.64" fill="#e6edf3" opacity="0.56">
      <animate attributeName="opacity" values="0.56;0.14;0.56" dur="3.6s" begin="3.2s" repeatCount="indefinite"/>
    </circle>
    <circle cx="499.1" cy="60.5" r="1.58" fill="#e6edf3" opacity="0.36">
      <animate attributeName="opacity" values="0.36;0.09;0.36" dur="4.9s" begin="3.3s" repeatCount="indefinite"/>
    </circle>
    <circle cx="511.9" cy="67.8" r="1.17" fill="#e6edf3" opacity="0.46">
      <animate attributeName="opacity" values="0.46;0.11;0.46" dur="3.8s" begin="0.7s" repeatCount="indefinite"/>
    </circle>
    <circle cx="970.3" cy="204.1" r="1.45" fill="#e6edf3" opacity="0.46">
      <animate attributeName="opacity" values="0.46;0.12;0.46" dur="5.1s" begin="2.7s" repeatCount="indefinite"/>
    </circle>
    <circle cx="846.0" cy="70.3" r="1.62" fill="#e6edf3" opacity="0.32">
      <animate attributeName="opacity" values="0.32;0.08;0.32" dur="3.5s" begin="0.3s" repeatCount="indefinite"/>
    </circle>
    <circle cx="694.3" cy="152.0" r="0.84" fill="#e6edf3" opacity="0.70">
      <animate attributeName="opacity" values="0.70;0.17;0.70" dur="4.3s" begin="2.2s" repeatCount="indefinite"/>
    </circle>
    <circle cx="749.7" cy="69.4" r="1.03" fill="#e6edf3" opacity="0.65">
      <animate attributeName="opacity" values="0.65;0.16;0.65" dur="3.2s" begin="3.0s" repeatCount="indefinite"/>
    </circle>
    <circle cx="821.0" cy="38.5" r="1.45" fill="#e6edf3" opacity="0.55">
      <animate attributeName="opacity" values="0.55;0.14;0.55" dur="5.8s" begin="3.5s" repeatCount="indefinite"/>
    </circle>
    <circle cx="513.1" cy="108.0" r="1.58" fill="#e6edf3" opacity="0.72">
      <animate attributeName="opacity" values="0.72;0.18;0.72" dur="5.2s" begin="0.1s" repeatCount="indefinite"/>
    </circle>
    <circle cx="764.5" cy="139.4" r="0.95" fill="#e6edf3" opacity="0.33">
      <animate attributeName="opacity" values="0.33;0.08;0.33" dur="2.8s" begin="3.2s" repeatCount="indefinite"/>
    </circle>
    <circle cx="509.6" cy="100.5" r="0.81" fill="#e6edf3" opacity="0.46">
      <animate attributeName="opacity" values="0.46;0.11;0.46" dur="3.1s" begin="3.9s" repeatCount="indefinite"/>
    </circle>
    <circle cx="734.2" cy="198.5" r="1.22" fill="#e6edf3" opacity="0.30">
      <animate attributeName="opacity" values="0.30;0.07;0.30" dur="3.8s" begin="2.7s" repeatCount="indefinite"/>
    </circle>
    <circle cx="573.7" cy="132.6" r="1.64" fill="#e6edf3" opacity="0.31">
      <animate attributeName="opacity" values="0.31;0.08;0.31" dur="3.5s" begin="1.4s" repeatCount="indefinite"/>
    </circle>
    <circle cx="452.1" cy="205.0" r="1.30" fill="#e6edf3" opacity="0.27">
      <animate attributeName="opacity" values="0.27;0.07;0.27" dur="4.1s" begin="3.6s" repeatCount="indefinite"/>
    </circle>
    <circle cx="550.6" cy="136.4" r="1.52" fill="#e6edf3" opacity="0.26">
      <animate attributeName="opacity" values="0.26;0.07;0.26" dur="4.2s" begin="3.7s" repeatCount="indefinite"/>
    </circle>
    <circle cx="414.4" cy="216.5" r="0.73" fill="#e6edf3" opacity="0.66">
      <animate attributeName="opacity" values="0.66;0.17;0.66" dur="5.5s" begin="1.3s" repeatCount="indefinite"/>
    </circle>
    <circle cx="349.8" cy="212.6" r="0.74" fill="#e6edf3" opacity="0.36">
      <animate attributeName="opacity" values="0.36;0.09;0.36" dur="2.9s" begin="0.1s" repeatCount="indefinite"/>
    </circle>
    <circle cx="484.1" cy="40.2" r="0.76" fill="#e6edf3" opacity="0.56">
      <animate attributeName="opacity" values="0.56;0.14;0.56" dur="5.9s" begin="0.7s" repeatCount="indefinite"/>
    </circle>
    <circle cx="455.8" cy="218.6" r="0.89" fill="#e6edf3" opacity="0.58">
      <animate attributeName="opacity" values="0.58;0.15;0.58" dur="3.3s" begin="3.5s" repeatCount="indefinite"/>
    </circle>
    <circle cx="871.9" cy="96.4" r="1.38" fill="#e6edf3" opacity="0.40">
      <animate attributeName="opacity" values="0.40;0.10;0.40" dur="3.0s" begin="0.9s" repeatCount="indefinite"/>
    </circle>
    <circle cx="735.1" cy="206.8" r="0.79" fill="#e6edf3" opacity="0.51">
      <animate attributeName="opacity" values="0.51;0.13;0.51" dur="4.5s" begin="3.5s" repeatCount="indefinite"/>
    </circle>
    <circle cx="516.9" cy="39.9" r="1.41" fill="#e6edf3" opacity="0.37">
      <animate attributeName="opacity" values="0.37;0.09;0.37" dur="3.2s" begin="3.5s" repeatCount="indefinite"/>
    </circle>
    <circle cx="1031.7" cy="114.0" r="1.06" fill="#e6edf3" opacity="0.67">
      <animate attributeName="opacity" values="0.67;0.17;0.67" dur="2.9s" begin="3.2s" repeatCount="indefinite"/>
    </circle>
    <circle cx="390.0" cy="81.3" r="1.35" fill="#e6edf3" opacity="0.39">
      <animate attributeName="opacity" values="0.39;0.10;0.39" dur="4.5s" begin="1.6s" repeatCount="indefinite"/>
    </circle>
    <circle cx="209.8" cy="112.3" r="1.41" fill="#e6edf3" opacity="0.65">
      <animate attributeName="opacity" values="0.65;0.16;0.65" dur="5.9s" begin="3.5s" repeatCount="indefinite"/>
    </circle>
    <circle cx="625.8" cy="99.0" r="1.36" fill="#e6edf3" opacity="0.34">
      <animate attributeName="opacity" values="0.34;0.08;0.34" dur="3.9s" begin="1.1s" repeatCount="indefinite"/>
    </circle>
    <circle cx="373.5" cy="105.9" r="1.01" fill="#e6edf3" opacity="0.54">
      <animate attributeName="opacity" values="0.54;0.14;0.54" dur="4.5s" begin="3.3s" repeatCount="indefinite"/>
    </circle>
    <circle cx="832.6" cy="50.0" r="1.05" fill="#e6edf3" opacity="0.59">
      <animate attributeName="opacity" values="0.59;0.15;0.59" dur="2.6s" begin="2.1s" repeatCount="indefinite"/>
    </circle>
    <circle cx="262.4" cy="92.9" r="0.91" fill="#e6edf3" opacity="0.28">
      <animate attributeName="opacity" values="0.28;0.07;0.28" dur="3.4s" begin="1.5s" repeatCount="indefinite"/>
    </circle>
    <circle cx="629.2" cy="66.3" r="0.74" fill="#e6edf3" opacity="0.40">
      <animate attributeName="opacity" values="0.40;0.10;0.40" dur="5.3s" begin="2.6s" repeatCount="indefinite"/>
    </circle>
    <circle cx="395.3" cy="140.1" r="0.72" fill="#e6edf3" opacity="0.54">
      <animate attributeName="opacity" values="0.54;0.13;0.54" dur="4.7s" begin="3.1s" repeatCount="indefinite"/>
    </circle>
    <circle cx="319.2" cy="46.9" r="0.72" fill="#e6edf3" opacity="0.54">
      <animate attributeName="opacity" values="0.54;0.14;0.54" dur="3.1s" begin="3.5s" repeatCount="indefinite"/>
    </circle>
    <circle cx="863.2" cy="141.9" r="1.65" fill="#e6edf3" opacity="0.28">
      <animate attributeName="opacity" values="0.28;0.07;0.28" dur="5.0s" begin="2.3s" repeatCount="indefinite"/>
    </circle>
    <circle cx="1013.3" cy="177.6" r="1.02" fill="#e6edf3" opacity="0.56">
      <animate attributeName="opacity" values="0.56;0.14;0.56" dur="3.4s" begin="0.7s" repeatCount="indefinite"/>
    </circle>
    <circle cx="476.5" cy="95.7" r="0.91" fill="#e6edf3" opacity="0.26">
      <animate attributeName="opacity" values="0.26;0.06;0.26" dur="4.7s" begin="3.6s" repeatCount="indefinite"/>
    </circle>
    <circle cx="697.7" cy="71.8" r="0.89" fill="#e6edf3" opacity="0.74">
      <animate attributeName="opacity" values="0.74;0.19;0.74" dur="3.5s" begin="0.6s" repeatCount="indefinite"/>
    </circle>
    <circle cx="627.0" cy="117.8" r="1.31" fill="#e6edf3" opacity="0.48">
      <animate attributeName="opacity" values="0.48;0.12;0.48" dur="4.5s" begin="1.0s" repeatCount="indefinite"/>
    </circle>
    <circle cx="510.8" cy="139.7" r="1.64" fill="#e6edf3" opacity="0.34">
      <animate attributeName="opacity" values="0.34;0.09;0.34" dur="4.9s" begin="2.4s" repeatCount="indefinite"/>
    </circle>
    <circle cx="579.9" cy="72.6" r="1.32" fill="#e6edf3" opacity="0.60">
      <animate attributeName="opacity" values="0.60;0.15;0.60" dur="3.1s" begin="3.8s" repeatCount="indefinite"/>
    </circle>
    <circle cx="727.2" cy="149.3" r="1.69" fill="#e6edf3" opacity="0.49">
      <animate attributeName="opacity" values="0.49;0.12;0.49" dur="5.9s" begin="1.9s" repeatCount="indefinite"/>
    </circle>

      <!-- aurora -->
    <path fill="none" stroke="url(#accent)" stroke-width="36" stroke-linecap="round"
      opacity="0.17" filter="url(#soft)">
      <animate attributeName="d" dur="16s" repeatCount="indefinite"
        calcMode="spline" keySplines="0.42 0 0.58 1;0.42 0 0.58 1;0.42 0 0.58 1" keyTimes="0;0.33;0.66;1"
        values="M 70.0 118.6 C 99.4 113.3 187.8 85.5 246.7 87.0 C 305.6 88.5 364.4 128.9 423.3 127.4 C 482.2 126.0 541.1 76.7 600.0 78.1 C 658.9 79.6 717.8 137.8 776.7 136.3 C 835.6 134.8 894.4 67.8 953.3 69.3 C 1012.2 70.8 1100.6 132.5 1130.0 145.1 ;M 70.0 73.7 C 99.4 80.6 187.8 116.7 246.7 114.8 C 305.6 112.9 364.4 60.3 423.3 62.2 C 482.2 64.1 541.1 128.2 600.0 126.3 C 658.9 124.4 717.8 48.8 776.7 50.7 C 835.6 52.7 894.4 139.7 953.3 137.8 C 1012.2 135.9 1100.6 55.7 1130.0 39.2 ;M 70.0 126.1 C 99.4 121.9 187.8 99.6 246.7 100.8 C 305.6 102.0 364.4 134.3 423.3 133.2 C 482.2 132.0 541.1 92.5 600.0 93.7 C 658.9 94.9 717.8 141.4 776.7 140.2 C 835.6 139.0 894.4 85.5 953.3 86.6 C 1012.2 87.8 1100.6 137.2 1130.0 147.3 ;M 70.0 118.6 C 99.4 113.3 187.8 85.5 246.7 87.0 C 305.6 88.5 364.4 128.9 423.3 127.4 C 482.2 126.0 541.1 76.7 600.0 78.1 C 658.9 79.6 717.8 137.8 776.7 136.3 C 835.6 134.8 894.4 67.8 953.3 69.3 C 1012.2 70.8 1100.6 132.5 1130.0 145.1 "/>
    </path>
    <path fill="none" stroke="url(#accent)" stroke-width="50" stroke-linecap="round"
      opacity="0.12" filter="url(#soft)">
      <animate attributeName="d" dur="21s" repeatCount="indefinite"
        calcMode="spline" keySplines="0.42 0 0.58 1;0.42 0 0.58 1;0.42 0 0.58 1" keyTimes="0;0.33;0.66;1"
        values="M 70.0 158.4 C 99.4 151.3 187.8 113.6 246.7 115.6 C 305.6 117.6 364.4 172.4 423.3 170.4 C 482.2 168.4 541.1 101.7 600.0 103.7 C 658.9 105.7 717.8 184.3 776.7 182.3 C 835.6 180.3 894.4 89.7 953.3 91.7 C 1012.2 93.7 1100.6 177.2 1130.0 194.3 ;M 70.0 97.7 C 99.4 106.9 187.8 155.9 246.7 153.3 C 305.6 150.7 364.4 79.5 423.3 82.1 C 482.2 84.7 541.1 171.4 600.0 168.8 C 658.9 166.3 717.8 64.0 776.7 66.6 C 835.6 69.2 894.4 187.0 953.3 184.4 C 1012.2 181.8 1100.6 73.3 1130.0 51.0 ;M 70.0 168.5 C 99.4 162.8 187.8 132.7 246.7 134.3 C 305.6 135.9 364.4 179.7 423.3 178.1 C 482.2 176.5 541.1 123.1 600.0 124.7 C 658.9 126.3 717.8 189.3 776.7 187.7 C 835.6 186.1 894.4 113.6 953.3 115.2 C 1012.2 116.8 1100.6 183.5 1130.0 197.2 ;M 70.0 158.4 C 99.4 151.3 187.8 113.6 246.7 115.6 C 305.6 117.6 364.4 172.4 423.3 170.4 C 482.2 168.4 541.1 101.7 600.0 103.7 C 658.9 105.7 717.8 184.3 776.7 182.3 C 835.6 180.3 894.4 89.7 953.3 91.7 C 1012.2 93.7 1100.6 177.2 1130.0 194.3 "/>
    </path>
    <path fill="none" stroke="url(#accent)" stroke-width="26" stroke-linecap="round"
      opacity="0.09" filter="url(#soft)">
      <animate attributeName="d" dur="26s" repeatCount="indefinite"
        calcMode="spline" keySplines="0.42 0 0.58 1;0.42 0 0.58 1;0.42 0 0.58 1" keyTimes="0;0.33;0.66;1"
        values="M 70.0 90.4 C 99.4 86.4 187.8 65.1 246.7 66.2 C 305.6 67.3 364.4 98.3 423.3 97.2 C 482.2 96.0 541.1 58.3 600.0 59.5 C 658.9 60.6 717.8 105.0 776.7 103.9 C 835.6 102.8 894.4 51.6 953.3 52.7 C 1012.2 53.8 1100.6 101.0 1130.0 110.7 ;M 70.0 56.1 C 99.4 61.3 187.8 89.0 246.7 87.5 C 305.6 86.0 364.4 45.8 423.3 47.3 C 482.2 48.8 541.1 97.8 600.0 96.3 C 658.9 94.8 717.8 37.0 776.7 38.5 C 835.6 40.0 894.4 106.6 953.3 105.1 C 1012.2 103.6 1100.6 42.3 1130.0 29.7 ;M 70.0 96.1 C 99.4 92.9 187.8 75.9 246.7 76.8 C 305.6 77.7 364.4 102.4 423.3 101.5 C 482.2 100.6 541.1 70.5 600.0 71.4 C 658.9 72.3 717.8 107.8 776.7 106.9 C 835.6 106.0 894.4 65.1 953.3 66.0 C 1012.2 66.9 1100.6 104.6 1130.0 112.3 ;M 70.0 90.4 C 99.4 86.4 187.8 65.1 246.7 66.2 C 305.6 67.3 364.4 98.3 423.3 97.2 C 482.2 96.0 541.1 58.3 600.0 59.5 C 658.9 60.6 717.8 105.0 776.7 103.9 C 835.6 102.8 894.4 51.6 953.3 52.7 C 1012.2 53.8 1100.6 101.0 1130.0 110.7 "/>
    </path>

      <!-- shooting star: brief streak every 16s -->
      <g opacity="0">
        <animate attributeName="opacity" dur="16s" repeatCount="indefinite"
          values="0;0;1;0;0" keyTimes="0;0.71;0.745;0.78;1"/>
        <line x1="0" y1="0" x2="46" y2="14" stroke="#e6edf3" stroke-width="1.6" stroke-linecap="round">
          <animateTransform attributeName="transform" type="translate" dur="16s" repeatCount="indefinite"
            values="880 60; 880 60; 640 140; 640 140" keyTimes="0;0.71;0.78;1"/>
        </line>
      </g>

      <!-- mountains: far ridge is the real contribution histogram -->
      <g>
        <path d="M 60.0 272.3 C 64.6 269.9 78.5 257.0 87.7 258.0 C 96.9 259.0 106.2 274.4 115.4 278.5 C 124.6 282.7 133.8 283.9 143.1 283.0 C 152.3 282.0 161.5 273.8 170.8 272.9 C 180.0 271.9 189.2 278.6 198.5 277.3 C 207.7 276.1 216.9 272.1 226.2 265.4 C 235.4 258.8 244.6 238.2 253.8 237.7 C 263.1 237.1 272.3 260.7 281.5 262.0 C 290.8 263.3 300.0 245.3 309.2 245.5 C 318.5 245.8 327.7 257.2 336.9 263.4 C 346.2 269.7 355.4 280.4 364.6 283.2 C 373.8 285.9 383.1 282.7 392.3 279.7 C 401.5 276.7 410.8 265.6 420.0 265.0 C 429.2 264.5 438.5 281.1 447.7 276.5 C 456.9 271.9 466.2 237.9 475.4 237.3 C 484.6 236.6 493.8 266.7 503.1 272.7 C 512.3 278.7 521.5 274.0 530.8 273.5 C 540.0 273.0 549.2 268.7 558.5 269.7 C 567.7 270.6 576.9 285.5 586.2 279.3 C 595.4 273.1 604.6 233.1 613.8 232.4 C 623.1 231.8 632.3 267.7 641.5 275.3 C 650.8 282.9 660.0 279.9 669.2 277.9 C 678.5 276.0 687.7 265.2 696.9 263.6 C 706.2 262.1 715.4 268.4 724.6 268.5 C 733.8 268.5 743.1 267.3 752.3 263.8 C 761.5 260.3 770.8 247.0 780.0 247.5 C 789.2 248.1 798.5 263.4 807.7 267.1 C 816.9 270.7 826.2 266.1 835.4 269.5 C 844.6 272.9 853.8 289.3 863.1 287.4 C 872.3 285.5 881.5 263.0 890.8 258.2 C 900.0 253.4 909.2 268.7 918.5 258.8 C 927.7 248.9 936.9 205.7 946.2 198.8 C 955.4 192.0 964.6 219.9 973.8 217.7 C 983.1 215.6 992.3 180.9 1001.5 185.8 C 1010.8 190.6 1020.0 243.6 1029.2 246.9 C 1038.5 250.2 1047.7 220.0 1056.9 205.7 C 1066.2 191.4 1075.4 159.6 1084.6 161.0 C 1093.8 162.4 1103.1 196.1 1112.3 214.3 C 1121.5 232.6 1135.4 261.1 1140.0 270.5 L 1140.0 400 L 60.0 400 Z" fill="#1b2230"/>
        <path d="M 60.0 272.3 C 64.6 269.9 78.5 257.0 87.7 258.0 C 96.9 259.0 106.2 274.4 115.4 278.5 C 124.6 282.7 133.8 283.9 143.1 283.0 C 152.3 282.0 161.5 273.8 170.8 272.9 C 180.0 271.9 189.2 278.6 198.5 277.3 C 207.7 276.1 216.9 272.1 226.2 265.4 C 235.4 258.8 244.6 238.2 253.8 237.7 C 263.1 237.1 272.3 260.7 281.5 262.0 C 290.8 263.3 300.0 245.3 309.2 245.5 C 318.5 245.8 327.7 257.2 336.9 263.4 C 346.2 269.7 355.4 280.4 364.6 283.2 C 373.8 285.9 383.1 282.7 392.3 279.7 C 401.5 276.7 410.8 265.6 420.0 265.0 C 429.2 264.5 438.5 281.1 447.7 276.5 C 456.9 271.9 466.2 237.9 475.4 237.3 C 484.6 236.6 493.8 266.7 503.1 272.7 C 512.3 278.7 521.5 274.0 530.8 273.5 C 540.0 273.0 549.2 268.7 558.5 269.7 C 567.7 270.6 576.9 285.5 586.2 279.3 C 595.4 273.1 604.6 233.1 613.8 232.4 C 623.1 231.8 632.3 267.7 641.5 275.3 C 650.8 282.9 660.0 279.9 669.2 277.9 C 678.5 276.0 687.7 265.2 696.9 263.6 C 706.2 262.1 715.4 268.4 724.6 268.5 C 733.8 268.5 743.1 267.3 752.3 263.8 C 761.5 260.3 770.8 247.0 780.0 247.5 C 789.2 248.1 798.5 263.4 807.7 267.1 C 816.9 270.7 826.2 266.1 835.4 269.5 C 844.6 272.9 853.8 289.3 863.1 287.4 C 872.3 285.5 881.5 263.0 890.8 258.2 C 900.0 253.4 909.2 268.7 918.5 258.8 C 927.7 248.9 936.9 205.7 946.2 198.8 C 955.4 192.0 964.6 219.9 973.8 217.7 C 983.1 215.6 992.3 180.9 1001.5 185.8 C 1010.8 190.6 1020.0 243.6 1029.2 246.9 C 1038.5 250.2 1047.7 220.0 1056.9 205.7 C 1066.2 191.4 1075.4 159.6 1084.6 161.0 C 1093.8 162.4 1103.1 196.1 1112.3 214.3 C 1121.5 232.6 1135.4 261.1 1140.0 270.5 "
          fill="none" stroke="url(#accent)" stroke-width="1.5" opacity="0.35"/>
      </g>
      <path d="M 60.0 318.4 C 64.6 312.6 78.5 295.0 87.7 283.8 C 96.9 272.6 106.2 251.9 115.4 251.0 C 124.6 250.1 133.8 269.7 143.1 278.5 C 152.3 287.3 161.5 305.9 170.8 303.9 C 180.0 301.8 189.2 269.2 198.5 266.2 C 207.7 263.2 216.9 284.6 226.2 285.9 C 235.4 287.3 244.6 270.1 253.8 274.3 C 263.1 278.5 272.3 305.1 281.5 311.2 C 290.8 317.3 300.0 307.9 309.2 310.8 C 318.5 313.7 327.7 327.6 336.9 328.8 C 346.2 329.9 355.4 319.8 364.6 317.7 C 373.8 315.7 383.1 318.5 392.3 316.3 C 401.5 314.0 410.8 304.6 420.0 304.3 C 429.2 303.9 438.5 312.1 447.7 314.3 C 456.9 316.4 466.2 317.2 475.4 317.1 C 484.6 317.1 493.8 313.2 503.1 314.2 C 512.3 315.1 521.5 321.8 530.8 323.0 C 540.0 324.1 549.2 326.0 558.5 321.3 C 567.7 316.7 576.9 294.6 586.2 295.0 C 595.4 295.4 604.6 320.0 613.8 323.8 C 623.1 327.6 632.3 318.5 641.5 317.9 C 650.8 317.3 660.0 319.9 669.2 320.2 C 678.5 320.5 687.7 323.4 696.9 319.7 C 706.2 316.0 715.4 297.5 724.6 297.9 C 733.8 298.3 743.1 319.2 752.3 322.1 C 761.5 324.9 770.8 314.7 780.0 315.0 C 789.2 315.4 798.5 322.2 807.7 324.1 C 816.9 325.9 826.2 327.8 835.4 326.2 C 844.6 324.5 853.8 317.9 863.1 314.0 C 872.3 310.2 881.5 303.2 890.8 303.0 C 900.0 302.9 909.2 314.0 918.5 313.2 C 927.7 312.4 936.9 297.8 946.2 298.2 C 955.4 298.5 964.6 311.2 973.8 315.3 C 983.1 319.3 992.3 321.8 1001.5 322.6 C 1010.8 323.3 1020.0 319.3 1029.2 319.9 C 1038.5 320.4 1047.7 325.5 1056.9 326.0 C 1066.2 326.6 1075.4 325.9 1084.6 323.3 C 1093.8 320.8 1103.1 311.3 1112.3 310.7 C 1121.5 310.1 1135.4 318.0 1140.0 319.5 L 1140.0 400 L 60.0 400 Z" fill="#131a26">
        <animateTransform attributeName="transform" type="translate" dur="26s" repeatCount="indefinite"
          calcMode="spline" keySplines="0.42 0 0.58 1;0.42 0 0.58 1" keyTimes="0;0.5;1" values="0 0;-9 0;0 0"/>
      </path>
      <rect x="110" y="250" width="980" height="90" fill="url(#mist)">
        <animateTransform attributeName="transform" type="translate" dur="30s" repeatCount="indefinite"
          calcMode="spline" keySplines="0.42 0 0.58 1;0.42 0 0.58 1" keyTimes="0;0.5;1" values="-18 0;18 0;-18 0"/>
      </rect>
      <path d="M 60.0 385.2 C 90.0 383.1 180.0 373.0 240.0 372.3 C 300.0 371.6 360.0 381.6 420.0 380.9 C 480.0 380.2 540.0 368.2 600.0 368.0 C 660.0 367.8 720.0 379.3 780.0 379.8 C 840.0 380.4 900.0 370.5 960.0 371.2 C 1020.0 371.9 1110.0 382.0 1140.0 384.2 L 1140.0 400 L 60.0 400 Z" fill="#0a0e14">
        <animateTransform attributeName="transform" type="translate" dur="20s" repeatCount="indefinite"
          calcMode="spline" keySplines="0.42 0 0.58 1;0.42 0 0.58 1" keyTimes="0;0.5;1" values="0 0;12 0;0 0"/>
      </path>

      <!-- caption -->
      <text x="180" y="378" font-size="13"
        font-family="ui-monospace, SFMono-Regular, Menlo, Consolas, monospace">
        <tspan fill="#7ee787">❯</tspan> <tspan fill="#8b949e">render --terrain contributions@2026</tspan>
        <tspan fill="#6e7681"> · 7,038 peaks</tspan>
      </text>
    </g>

    <rect x="150.5" y="20.5" width="899" height="379" rx="15.5"
      fill="none" stroke="#30363d" stroke-width="1"/>
    <line x1="166" y1="21" x2="1034" y2="21"
      stroke="url(#accent)" stroke-width="1.5" opacity="0.55"/>
  </g>
</svg>
