<svg width="1200" height="420" viewBox="0 0 1200 420" xmlns="http://www.w3.org/2000/svg">
  <style>
    /* CSS entrance (not SMIL) — Chromium never starts SMIL clocks for
       below-viewport images; fill-mode:both degrades to fully-visible. */
    .card-in { animation: fadeUp 0.9s cubic-bezier(0.25, 1, 0.5, 1) 0.1s both; }
    @keyframes fadeUp { from { opacity: 0; transform: translateY(14px); } to { opacity: 1; transform: none; } }
    @media (prefers-reduced-motion: reduce) { .card-in { animation: none; } }
  </style>
  <defs>
    <linearGradient id="accent" x1="0%" y1="0%" x2="100%" y2="0%">
      <stop offset="0%" stop-color="#00d9ff"/>
      <stop offset="100%" stop-color="#8b5cf6"/>
      <animate attributeName="x1" dur="14s" values="0%;22%;0%" repeatCount="indefinite"/>
      <animate attributeName="x2" dur="14s" values="100%;78%;100%" repeatCount="indefinite"/>
    </linearGradient>
    <linearGradient id="sky" x1="0%" y1="0%" x2="0%" y2="100%">
      <stop offset="0%" stop-color="#0a0f1f"/>
      <stop offset="55%" stop-color="#0d1220"/>
      <stop offset="100%" stop-color="#0d1117"/>
    </linearGradient>
    <linearGradient id="mist" x1="0%" y1="0%" x2="0%" y2="100%">
      <stop offset="0%" stop-color="#8b949e" stop-opacity="0"/>
      <stop offset="100%" stop-color="#8b949e" stop-opacity="0.10"/>
    </linearGradient>
    <filter id="soft" filterUnits="userSpaceOnUse" x="10" y="0" width="1180" height="320">
      <feGaussianBlur stdDeviation="14"/>
    </filter>
    <filter id="shadow" x="-15%" y="-15%" width="130%" height="130%">
      <feDropShadow dx="0" dy="10" stdDeviation="18" flood-color="#000000" flood-opacity="0.35"/>
    </filter>
    <clipPath id="frame"><rect x="150" y="20" width="900" height="380" rx="16"/></clipPath>
  </defs>

  <g class="card-in">

    <rect x="150" y="20" width="900" height="380" rx="16" fill="url(#sky)" filter="url(#shadow)"/>

    <g clip-path="url(#frame)">
      <!-- stars -->
    <circle cx="296.7" cy="37.3" r="1.70" fill="#e6edf3" opacity="0.64">
      <animate attributeName="opacity" values="0.64;0.16;0.64" dur="5.3s" begin="1.0s" repeatCount="indefinite"/>
    </circle>
    <circle cx="1027.1" cy="185.2" r="0.82" fill="#e6edf3" opacity="0.56">
      <animate attributeName="opacity" values="0.56;0.14;0.56" dur="4.5s" begin="2.7s" repeatCount="indefinite"/>
    </circle>
    <circle cx="262.0" cy="111.6" r="1.53" fill="#e6edf3" opacity="0.47">
      <animate attributeName="opacity" values="0.47;0.12;0.47" dur="2.8s" begin="2.6s" repeatCount="indefinite"/>
    </circle>
    <circle cx="230.8" cy="109.0" r="0.70" fill="#e6edf3" opacity="0.58">
      <animate attributeName="opacity" values="0.58;0.15;0.58" dur="5.9s" begin="1.2s" repeatCount="indefinite"/>
    </circle>
    <circle cx="558.0" cy="135.2" r="1.45" fill="#e6edf3" opacity="0.71">
      <animate attributeName="opacity" values="0.71;0.18;0.71" dur="5.8s" begin="0.8s" repeatCount="indefinite"/>
    </circle>
    <circle cx="701.2" cy="136.1" r="1.46" fill="#e6edf3" opacity="0.33">
      <animate attributeName="opacity" values="0.33;0.08;0.33" dur="2.7s" begin="3.9s" repeatCount="indefinite"/>
    </circle>
    <circle cx="688.6" cy="48.4" r="0.73" fill="#e6edf3" opacity="0.65">
      <animate attributeName="opacity" values="0.65;0.16;0.65" dur="3.1s" begin="2.5s" repeatCount="indefinite"/>
    </circle>
    <circle cx="449.1" cy="216.8" r="1.49" fill="#e6edf3" opacity="0.35">
      <animate attributeName="opacity" values="0.35;0.09;0.35" dur="3.2s" begin="2.1s" repeatCount="indefinite"/>
    </circle>
    <circle cx="178.8" cy="129.3" r="1.11" fill="#e6edf3" opacity="0.53">
      <animate attributeName="opacity" values="0.53;0.13;0.53" dur="4.5s" begin="0.1s" repeatCount="indefinite"/>
    </circle>
    <circle cx="644.7" cy="221.0" r="1.50" fill="#e6edf3" opacity="0.50">
      <animate attributeName="opacity" values="0.50;0.12;0.50" dur="3.5s" begin="0.6s" repeatCount="indefinite"/>
    </circle>
    <circle cx="1029.8" cy="211.3" r="1.43" fill="#e6edf3" opacity="0.67">
      <animate attributeName="opacity" values="0.67;0.17;0.67" dur="5.3s" begin="1.8s" repeatCount="indefinite"/>
    </circle>
    <circle cx="388.1" cy="69.9" r="1.32" fill="#e6edf3" opacity="0.58">
      <animate attributeName="opacity" values="0.58;0.15;0.58" dur="5.8s" begin="1.1s" repeatCount="indefinite"/>
    </circle>
    <circle cx="919.2" cy="60.6" r="0.82" fill="#e6edf3" opacity="0.26">
      <animate attributeName="opacity" values="0.26;0.07;0.26" dur="5.9s" begin="1.1s" repeatCount="indefinite"/>
    </circle>
    <circle cx="361.8" cy="44.4" r="1.34" fill="#e6edf3" opacity="0.63">
      <animate attributeName="opacity" values="0.63;0.16;0.63" dur="3.3s" begin="0.1s" repeatCount="indefinite"/>
    </circle>
    <circle cx="1018.3" cy="155.2" r="1.23" fill="#e6edf3" opacity="0.61">
      <animate attributeName="opacity" values="0.61;0.15;0.61" dur="4.6s" begin="2.4s" repeatCount="indefinite"/>
    </circle>
    <circle cx="183.6" cy="32.5" r="1.14" fill="#e6edf3" opacity="0.58">
      <animate attributeName="opacity" values="0.58;0.14;0.58" dur="5.0s" begin="1.9s" repeatCount="indefinite"/>
    </circle>
    <circle cx="369.6" cy="134.7" r="0.83" fill="#e6edf3" opacity="0.30">
      <animate attributeName="opacity" values="0.30;0.07;0.30" dur="5.9s" begin="2.6s" repeatCount="indefinite"/>
    </circle>
    <circle cx="660.2" cy="133.7" r="1.42" fill="#e6edf3" opacity="0.69">
      <animate attributeName="opacity" values="0.69;0.17;0.69" dur="4.8s" begin="3.5s" repeatCount="indefinite"/>
    </circle>
    <circle cx="481.4" cy="123.7" r="1.17" fill="#e6edf3" opacity="0.39">
      <animate attributeName="opacity" values="0.39;0.10;0.39" dur="3.4s" begin="2.0s" repeatCount="indefinite"/>
    </circle>
    <circle cx="972.9" cy="175.5" r="1.39" fill="#e6edf3" opacity="0.41">
      <animate attributeName="opacity" values="0.41;0.10;0.41" dur="5.1s" begin="0.0s" repeatCount="indefinite"/>
    </circle>
    <circle cx="491.7" cy="33.3" r="1.36" fill="#e6edf3" opacity="0.27">
      <animate attributeName="opacity" values="0.27;0.07;0.27" dur="5.2s" begin="0.5s" repeatCount="indefinite"/>
    </circle>
    <circle cx="217.1" cy="60.7" r="1.69" fill="#e6edf3" opacity="0.46">
      <animate attributeName="opacity" values="0.46;0.11;0.46" dur="5.2s" begin="3.3s" repeatCount="indefinite"/>
    </circle>
    <circle cx="950.3" cy="140.5" r="1.18" fill="#e6edf3" opacity="0.39">
      <animate attributeName="opacity" values="0.39;0.10;0.39" dur="4.1s" begin="1.5s" repeatCount="indefinite"/>
    </circle>
    <circle cx="607.5" cy="32.7" r="0.97" fill="#e6edf3" opacity="0.36">
      <animate attributeName="opacity" values="0.36;0.09;0.36" dur="3.5s" begin="1.3s" repeatCount="indefinite"/>
    </circle>
    <circle cx="805.2" cy="214.4" r="0.75" fill="#e6edf3" opacity="0.63">
      <animate attributeName="opacity" values="0.63;0.16;0.63" dur="5.8s" begin="2.5s" repeatCount="indefinite"/>
    </circle>
    <circle cx="605.4" cy="180.8" r="0.76" fill="#e6edf3" opacity="0.28">
      <animate attributeName="opacity" values="0.28;0.07;0.28" dur="2.8s" begin="0.4s" repeatCount="indefinite"/>
    </circle>
    <circle cx="706.9" cy="215.1" r="1.41" fill="#e6edf3" opacity="0.59">
      <animate attributeName="opacity" values="0.59;0.15;0.59" dur="4.8s" begin="0.9s" repeatCount="indefinite"/>
    </circle>
    <circle cx="235.2" cy="87.4" r="1.38" fill="#e6edf3" opacity="0.74">
      <animate attributeName="opacity" values="0.74;0.19;0.74" dur="3.8s" begin="3.3s" repeatCount="indefinite"/>
    </circle>
    <circle cx="928.0" cy="203.4" r="1.16" fill="#e6edf3" opacity="0.54">
      <animate attributeName="opacity" values="0.54;0.14;0.54" dur="5.2s" begin="3.3s" repeatCount="indefinite"/>
    </circle>
    <circle cx="708.8" cy="117.6" r="0.89" fill="#e6edf3" opacity="0.43">
      <animate attributeName="opacity" values="0.43;0.11;0.43" dur="2.7s" begin="3.5s" repeatCount="indefinite"/>
    </circle>
    <circle cx="169.0" cy="152.9" r="0.91" fill="#e6edf3" opacity="0.55">
      <animate attributeName="opacity" values="0.55;0.14;0.55" dur="5.4s" begin="1.4s" repeatCount="indefinite"/>
    </circle>
    <circle cx="1017.3" cy="84.9" r="1.70" fill="#e6edf3" opacity="0.30">
      <animate attributeName="opacity" values="0.30;0.07;0.30" dur="5.5s" begin="2.4s" repeatCount="indefinite"/>
    </circle>
    <circle cx="862.7" cy="36.1" r="1.69" fill="#e6edf3" opacity="0.64">
      <animate attributeName="opacity" values="0.64;0.16;0.64" dur="4.2s" begin="2.3s" repeatCount="indefinite"/>
    </circle>
    <circle cx="852.9" cy="206.6" r="0.86" fill="#e6edf3" opacity="0.35">
      <animate attributeName="opacity" values="0.35;0.09;0.35" dur="5.2s" begin="1.4s" repeatCount="indefinite"/>
    </circle>
    <circle cx="315.9" cy="141.7" r="1.54" fill="#e6edf3" opacity="0.68">
      <animate attributeName="opacity" values="0.68;0.17;0.68" dur="2.8s" begin="3.2s" repeatCount="indefinite"/>
    </circle>
    <circle cx="536.3" cy="118.7" r="1.41" fill="#e6edf3" opacity="0.71">
      <animate attributeName="opacity" values="0.71;0.18;0.71" dur="3.2s" begin="0.7s" repeatCount="indefinite"/>
    </circle>
    <circle cx="305.1" cy="200.2" r="0.74" fill="#e6edf3" opacity="0.59">
      <animate attributeName="opacity" values="0.59;0.15;0.59" dur="3.9s" begin="3.8s" repeatCount="indefinite"/>
    </circle>
    <circle cx="949.2" cy="202.3" r="1.32" fill="#e6edf3" opacity="0.39">
      <animate attributeName="opacity" values="0.39;0.10;0.39" dur="2.9s" begin="1.3s" repeatCount="indefinite"/>
    </circle>
    <circle cx="296.3" cy="37.3" r="1.13" fill="#e6edf3" opacity="0.30">
      <animate attributeName="opacity" values="0.30;0.08;0.30" dur="5.9s" begin="2.6s" repeatCount="indefinite"/>
    </circle>
    <circle cx="443.4" cy="154.1" r="1.48" fill="#e6edf3" opacity="0.52">
      <animate attributeName="opacity" values="0.52;0.13;0.52" dur="2.7s" begin="2.7s" repeatCount="indefinite"/>
    </circle>
    <circle cx="880.7" cy="94.1" r="0.88" fill="#e6edf3" opacity="0.41">
      <animate attributeName="opacity" values="0.41;0.10;0.41" dur="4.7s" begin="1.7s" repeatCount="indefinite"/>
    </circle>
    <circle cx="458.5" cy="49.6" r="1.04" fill="#e6edf3" opacity="0.66">
      <animate attributeName="opacity" values="0.66;0.16;0.66" dur="6.0s" begin="2.3s" repeatCount="indefinite"/>
    </circle>

      <!-- aurora -->
    <path fill="none" stroke="url(#accent)" stroke-width="36" stroke-linecap="round"
      opacity="0.17" filter="url(#soft)">
      <animate attributeName="d" dur="16s" repeatCount="indefinite"
        calcMode="spline" keySplines="0.42 0 0.58 1;0.42 0 0.58 1;0.42 0 0.58 1" keyTimes="0;0.33;0.66;1"
        values="M 70.0 118.6 C 99.4 113.3 187.8 85.5 246.7 87.0 C 305.6 88.5 364.4 128.9 423.3 127.4 C 482.2 126.0 541.1 76.7 600.0 78.1 C 658.9 79.6 717.8 137.8 776.7 136.3 C 835.6 134.8 894.4 67.8 953.3 69.3 C 1012.2 70.8 1100.6 132.5 1130.0 145.1 ;M 70.0 73.7 C 99.4 80.6 187.8 116.7 246.7 114.8 C 305.6 112.9 364.4 60.3 423.3 62.2 C 482.2 64.1 541.1 128.2 600.0 126.3 C 658.9 124.4 717.8 48.8 776.7 50.7 C 835.6 52.7 894.4 139.7 953.3 137.8 C 1012.2 135.9 1100.6 55.7 1130.0 39.2 ;M 70.0 126.1 C 99.4 121.9 187.8 99.6 246.7 100.8 C 305.6 102.0 364.4 134.3 423.3 133.2 C 482.2 132.0 541.1 92.5 600.0 93.7 C 658.9 94.9 717.8 141.4 776.7 140.2 C 835.6 139.0 894.4 85.5 953.3 86.6 C 1012.2 87.8 1100.6 137.2 1130.0 147.3 ;M 70.0 118.6 C 99.4 113.3 187.8 85.5 246.7 87.0 C 305.6 88.5 364.4 128.9 423.3 127.4 C 482.2 126.0 541.1 76.7 600.0 78.1 C 658.9 79.6 717.8 137.8 776.7 136.3 C 835.6 134.8 894.4 67.8 953.3 69.3 C 1012.2 70.8 1100.6 132.5 1130.0 145.1 "/>
    </path>
    <path fill="none" stroke="url(#accent)" stroke-width="50" stroke-linecap="round"
      opacity="0.12" filter="url(#soft)">
      <animate attributeName="d" dur="21s" repeatCount="indefinite"
        calcMode="spline" keySplines="0.42 0 0.58 1;0.42 0 0.58 1;0.42 0 0.58 1" keyTimes="0;0.33;0.66;1"
        values="M 70.0 158.4 C 99.4 151.3 187.8 113.6 246.7 115.6 C 305.6 117.6 364.4 172.4 423.3 170.4 C 482.2 168.4 541.1 101.7 600.0 103.7 C 658.9 105.7 717.8 184.3 776.7 182.3 C 835.6 180.3 894.4 89.7 953.3 91.7 C 1012.2 93.7 1100.6 177.2 1130.0 194.3 ;M 70.0 97.7 C 99.4 106.9 187.8 155.9 246.7 153.3 C 305.6 150.7 364.4 79.5 423.3 82.1 C 482.2 84.7 541.1 171.4 600.0 168.8 C 658.9 166.3 717.8 64.0 776.7 66.6 C 835.6 69.2 894.4 187.0 953.3 184.4 C 1012.2 181.8 1100.6 73.3 1130.0 51.0 ;M 70.0 168.5 C 99.4 162.8 187.8 132.7 246.7 134.3 C 305.6 135.9 364.4 179.7 423.3 178.1 C 482.2 176.5 541.1 123.1 600.0 124.7 C 658.9 126.3 717.8 189.3 776.7 187.7 C 835.6 186.1 894.4 113.6 953.3 115.2 C 1012.2 116.8 1100.6 183.5 1130.0 197.2 ;M 70.0 158.4 C 99.4 151.3 187.8 113.6 246.7 115.6 C 305.6 117.6 364.4 172.4 423.3 170.4 C 482.2 168.4 541.1 101.7 600.0 103.7 C 658.9 105.7 717.8 184.3 776.7 182.3 C 835.6 180.3 894.4 89.7 953.3 91.7 C 1012.2 93.7 1100.6 177.2 1130.0 194.3 "/>
    </path>
    <path fill="none" stroke="url(#accent)" stroke-width="26" stroke-linecap="round"
      opacity="0.09" filter="url(#soft)">
      <animate attributeName="d" dur="26s" repeatCount="indefinite"
        calcMode="spline" keySplines="0.42 0 0.58 1;0.42 0 0.58 1;0.42 0 0.58 1" keyTimes="0;0.33;0.66;1"
        values="M 70.0 90.4 C 99.4 86.4 187.8 65.1 246.7 66.2 C 305.6 67.3 364.4 98.3 423.3 97.2 C 482.2 96.0 541.1 58.3 600.0 59.5 C 658.9 60.6 717.8 105.0 776.7 103.9 C 835.6 102.8 894.4 51.6 953.3 52.7 C 1012.2 53.8 1100.6 101.0 1130.0 110.7 ;M 70.0 56.1 C 99.4 61.3 187.8 89.0 246.7 87.5 C 305.6 86.0 364.4 45.8 423.3 47.3 C 482.2 48.8 541.1 97.8 600.0 96.3 C 658.9 94.8 717.8 37.0 776.7 38.5 C 835.6 40.0 894.4 106.6 953.3 105.1 C 1012.2 103.6 1100.6 42.3 1130.0 29.7 ;M 70.0 96.1 C 99.4 92.9 187.8 75.9 246.7 76.8 C 305.6 77.7 364.4 102.4 423.3 101.5 C 482.2 100.6 541.1 70.5 600.0 71.4 C 658.9 72.3 717.8 107.8 776.7 106.9 C 835.6 106.0 894.4 65.1 953.3 66.0 C 1012.2 66.9 1100.6 104.6 1130.0 112.3 ;M 70.0 90.4 C 99.4 86.4 187.8 65.1 246.7 66.2 C 305.6 67.3 364.4 98.3 423.3 97.2 C 482.2 96.0 541.1 58.3 600.0 59.5 C 658.9 60.6 717.8 105.0 776.7 103.9 C 835.6 102.8 894.4 51.6 953.3 52.7 C 1012.2 53.8 1100.6 101.0 1130.0 110.7 "/>
    </path>

      <!-- shooting star: brief streak every 16s -->
      <g opacity="0">
        <animate attributeName="opacity" dur="16s" repeatCount="indefinite"
          values="0;0;1;0;0" keyTimes="0;0.71;0.745;0.78;1"/>
        <line x1="0" y1="0" x2="46" y2="14" stroke="#e6edf3" stroke-width="1.6" stroke-linecap="round">
          <animateTransform attributeName="transform" type="translate" dur="16s" repeatCount="indefinite"
            values="880 60; 880 60; 640 140; 640 140" keyTimes="0;0.71;0.78;1"/>
        </line>
      </g>

      <!-- mountains: far ridge is the real contribution histogram -->
      <g>
        <path d="M 60.0 266.7 C 65.1 263.6 80.6 246.8 90.9 248.1 C 101.1 249.5 111.4 269.4 121.7 274.8 C 132.0 280.2 142.3 281.8 152.6 280.5 C 162.9 279.3 173.1 268.7 183.4 267.5 C 193.7 266.2 204.0 274.8 214.3 273.2 C 224.6 271.6 234.9 266.4 245.1 257.8 C 255.4 249.2 265.7 222.4 276.0 221.7 C 286.3 220.9 296.6 251.6 306.9 253.3 C 317.1 255.0 327.4 231.6 337.7 231.9 C 348.0 232.2 358.3 247.0 368.6 255.2 C 378.9 263.3 389.1 277.3 399.4 280.8 C 409.7 284.3 420.0 280.3 430.3 276.4 C 440.6 272.4 450.9 258.0 461.1 257.3 C 471.4 256.6 481.7 278.2 492.0 272.2 C 502.3 266.2 512.6 222.0 522.9 221.2 C 533.1 220.3 543.4 259.4 553.7 267.2 C 564.0 275.0 574.3 268.9 584.6 268.2 C 594.9 267.6 605.1 262.0 615.4 263.3 C 625.7 264.5 636.0 283.9 646.3 275.8 C 656.6 267.8 666.9 215.8 677.1 214.9 C 687.4 214.0 697.7 260.7 708.0 270.6 C 718.3 280.5 728.6 276.5 738.9 274.0 C 749.1 271.5 759.4 257.5 769.7 255.4 C 780.0 253.4 790.3 261.6 800.6 261.7 C 810.9 261.8 821.1 260.5 831.4 255.9 C 841.7 251.4 852.0 233.8 862.3 234.5 C 872.6 235.2 882.9 255.1 893.1 259.9 C 903.4 264.6 913.7 258.6 924.0 263.0 C 934.3 267.4 944.6 288.7 954.9 286.3 C 965.1 283.9 975.4 254.6 985.7 248.4 C 996.0 242.2 1006.3 262.0 1016.6 249.1 C 1026.9 236.3 1037.1 180.1 1047.4 171.2 C 1057.7 162.3 1068.0 197.5 1078.3 195.8 C 1088.6 194.1 1098.9 154.0 1109.1 161.0 C 1119.4 168.0 1134.9 224.9 1140.0 237.6 L 1140.0 400 L 60.0 400 Z" fill="#1b2230"/>
        <path d="M 60.0 266.7 C 65.1 263.6 80.6 246.8 90.9 248.1 C 101.1 249.5 111.4 269.4 121.7 274.8 C 132.0 280.2 142.3 281.8 152.6 280.5 C 162.9 279.3 173.1 268.7 183.4 267.5 C 193.7 266.2 204.0 274.8 214.3 273.2 C 224.6 271.6 234.9 266.4 245.1 257.8 C 255.4 249.2 265.7 222.4 276.0 221.7 C 286.3 220.9 296.6 251.6 306.9 253.3 C 317.1 255.0 327.4 231.6 337.7 231.9 C 348.0 232.2 358.3 247.0 368.6 255.2 C 378.9 263.3 389.1 277.3 399.4 280.8 C 409.7 284.3 420.0 280.3 430.3 276.4 C 440.6 272.4 450.9 258.0 461.1 257.3 C 471.4 256.6 481.7 278.2 492.0 272.2 C 502.3 266.2 512.6 222.0 522.9 221.2 C 533.1 220.3 543.4 259.4 553.7 267.2 C 564.0 275.0 574.3 268.9 584.6 268.2 C 594.9 267.6 605.1 262.0 615.4 263.3 C 625.7 264.5 636.0 283.9 646.3 275.8 C 656.6 267.8 666.9 215.8 677.1 214.9 C 687.4 214.0 697.7 260.7 708.0 270.6 C 718.3 280.5 728.6 276.5 738.9 274.0 C 749.1 271.5 759.4 257.5 769.7 255.4 C 780.0 253.4 790.3 261.6 800.6 261.7 C 810.9 261.8 821.1 260.5 831.4 255.9 C 841.7 251.4 852.0 233.8 862.3 234.5 C 872.6 235.2 882.9 255.1 893.1 259.9 C 903.4 264.6 913.7 258.6 924.0 263.0 C 934.3 267.4 944.6 288.7 954.9 286.3 C 965.1 283.9 975.4 254.6 985.7 248.4 C 996.0 242.2 1006.3 262.0 1016.6 249.1 C 1026.9 236.3 1037.1 180.1 1047.4 171.2 C 1057.7 162.3 1068.0 197.5 1078.3 195.8 C 1088.6 194.1 1098.9 154.0 1109.1 161.0 C 1119.4 168.0 1134.9 224.9 1140.0 237.6 "
          fill="none" stroke="url(#accent)" stroke-width="1.5" opacity="0.35"/>
      </g>
      <path d="M 60.0 298.2 C 65.1 290.3 80.6 255.3 90.9 251.0 C 101.1 246.7 111.4 271.4 121.7 272.4 C 132.0 273.5 142.3 251.8 152.6 257.3 C 162.9 262.8 173.1 297.3 183.4 305.2 C 193.7 313.2 204.0 301.0 214.3 304.8 C 224.6 308.6 234.9 326.6 245.1 328.1 C 255.4 329.6 265.7 316.5 276.0 313.8 C 286.3 311.1 296.6 314.8 306.9 311.8 C 317.1 308.9 327.4 296.6 337.7 296.2 C 348.0 295.8 358.3 306.6 368.6 309.4 C 378.9 312.2 389.1 313.0 399.4 313.0 C 409.7 312.9 420.0 307.8 430.3 309.1 C 440.6 310.4 450.9 319.0 461.1 320.5 C 471.4 322.1 481.7 324.5 492.0 318.4 C 502.3 312.4 512.6 283.6 522.9 284.2 C 533.1 284.7 543.4 316.7 553.7 321.7 C 564.0 326.6 574.3 314.7 584.6 313.9 C 594.9 313.2 605.1 316.6 615.4 317.0 C 625.7 317.4 636.0 321.2 646.3 316.4 C 656.6 311.5 666.9 287.5 677.1 288.0 C 687.4 288.5 697.7 315.7 708.0 319.4 C 718.3 323.1 728.6 309.8 738.9 310.2 C 749.1 310.7 759.4 319.6 769.7 322.0 C 780.0 324.4 790.3 326.9 800.6 324.7 C 810.9 322.5 821.1 314.0 831.4 308.9 C 841.7 303.9 852.0 294.8 862.3 294.6 C 872.6 294.4 882.9 308.9 893.1 307.8 C 903.4 306.8 913.7 287.9 924.0 288.3 C 934.3 288.8 944.6 305.3 954.9 310.6 C 965.1 315.8 975.4 319.1 985.7 320.1 C 996.0 321.0 1006.3 315.8 1016.6 316.5 C 1026.9 317.3 1037.1 323.8 1047.4 324.6 C 1057.7 325.3 1068.0 324.3 1078.3 321.0 C 1088.6 317.7 1098.9 305.4 1109.1 304.6 C 1119.4 303.8 1134.9 314.1 1140.0 316.0 L 1140.0 400 L 60.0 400 Z" fill="#131a26">
        <animateTransform attributeName="transform" type="translate" dur="26s" repeatCount="indefinite"
          calcMode="spline" keySplines="0.42 0 0.58 1;0.42 0 0.58 1" keyTimes="0;0.5;1" values="0 0;-9 0;0 0"/>
      </path>
      <rect x="110" y="250" width="980" height="90" fill="url(#mist)">
        <animateTransform attributeName="transform" type="translate" dur="30s" repeatCount="indefinite"
          calcMode="spline" keySplines="0.42 0 0.58 1;0.42 0 0.58 1" keyTimes="0;0.5;1" values="-18 0;18 0;-18 0"/>
      </rect>
      <path d="M 60.0 385.2 C 90.0 383.1 180.0 373.0 240.0 372.3 C 300.0 371.6 360.0 381.6 420.0 380.9 C 480.0 380.2 540.0 368.2 600.0 368.0 C 660.0 367.8 720.0 379.3 780.0 379.8 C 840.0 380.4 900.0 370.5 960.0 371.2 C 1020.0 371.9 1110.0 382.0 1140.0 384.2 L 1140.0 400 L 60.0 400 Z" fill="#0a0e14">
        <animateTransform attributeName="transform" type="translate" dur="20s" repeatCount="indefinite"
          calcMode="spline" keySplines="0.42 0 0.58 1;0.42 0 0.58 1" keyTimes="0;0.5;1" values="0 0;12 0;0 0"/>
      </path>

      <!-- caption -->
      <text x="180" y="378" font-size="13"
        font-family="ui-monospace, SFMono-Regular, Menlo, Consolas, monospace">
        <tspan fill="#7ee787">❯</tspan> <tspan fill="#8b949e">render --terrain contributions@2026</tspan>
        <tspan fill="#6e7681"> · 5,443 peaks</tspan>
      </text>
    </g>

    <rect x="150.5" y="20.5" width="899" height="379" rx="15.5"
      fill="none" stroke="#30363d" stroke-width="1"/>
    <line x1="166" y1="21" x2="1034" y2="21"
      stroke="url(#accent)" stroke-width="1.5" opacity="0.55"/>
  </g>
</svg>
